<?xml version="1.0" standalone="no"?><!DOCTYPE svg PUBLIC "-//W3C//DTD SVG 1.1//EN" "http://www.w3.org/Graphics/SVG/1.1/DTD/svg11.dtd"><svg t="1739570805425" class="icon" viewBox="0 0 1024 1024" version="1.1" xmlns="http://www.w3.org/2000/svg" p-id="6164" xmlns:xlink="http://www.w3.org/1999/xlink" width="200" height="200"><path d="M362.413 96c19.58-7.485 40.587 6.969 40.587 27.926V765.18a29.897 29.897 0 0 1-16.124 26.535L149.292 915.049A52.92 52.92 0 0 1 124.91 921C95.688 921 72 897.317 72 868.103V243.43c0-21.925 13.529-41.577 34.012-49.408z m-49.237 375.22c-5.403-15.604-22.436-23.874-38.043-18.473l-89.602 31.01-0.684 0.246c-15.164 5.656-23.117 22.413-17.794 37.787 5.403 15.604 22.435 23.875 38.043 18.473l89.602-31.01 0.684-0.245c15.164-5.656 23.117-22.413 17.794-37.788z m0-140.808c-5.403-15.604-22.436-23.875-38.043-18.473l-89.602 31.01-0.684 0.245c-15.164 5.656-23.117 22.413-17.794 37.788 5.403 15.604 22.435 23.874 38.043 18.473l89.602-31.01 0.684-0.246c15.164-5.656 23.117-22.413 17.794-37.787z" fill="#1296db" p-id="6165"></path><path d="M382.587 96l271.189 103.687A29.902 29.902 0 0 1 673 227.617v678.441c0 22.429-23.78 36.873-43.687 26.538L358.124 791.799A29.901 29.901 0 0 1 342 765.262V123.93c0-20.96 21.007-35.416 40.587-27.93z m19.225 71.376v579.716L613.19 856.837V248.194l-211.377-80.818z" fill="#1296db" p-id="6166"></path><path d="M892.09 104a52.89 52.89 0 0 0-18.897 3.491l-239.969 91.8A29.918 29.918 0 0 0 614 227.235v678.807c0 22.44 23.78 36.893 43.687 26.552l258.785-134.43A52.934 52.934 0 0 0 945 751.189V156.932C945 127.698 921.312 104 892.09 104z" fill="#1296db" p-id="6167" data-spm-anchor-id="a313x.search_index.0.i0.7f0e3a81zoA7vg" class=""></path></svg>