<?xml version="1.0" standalone="no"?><!DOCTYPE svg PUBLIC "-//W3C//DTD SVG 1.1//EN" "http://www.w3.org/Graphics/SVG/1.1/DTD/svg11.dtd"><svg t="1739570901987" class="icon" viewBox="0 0 1024 1024" version="1.1" xmlns="http://www.w3.org/2000/svg" p-id="8261" xmlns:xlink="http://www.w3.org/1999/xlink" width="200" height="200"><path d="M512 870.4v-102.4c0-56.32 46.08-102.4 102.4-102.4h51.2v-51.2c0-56.32 40.96-97.28 97.28-102.4-35.84-15.36-76.8-30.72-117.76-40.96C716.8 430.08 768 348.16 768 256c0-143.36-112.64-256-256-256S256 112.64 256 256c0 92.16 51.2 174.08 128 220.16-256 56.32-378.88 271.36-378.88 471.04-5.12 20.48 0 35.84 10.24 51.2 10.24 15.36 30.72 20.48 51.2 20.48H665.6v-51.2h-51.2c-56.32 5.12-102.4-40.96-102.4-97.28zM972.8 1024c15.36-5.12 25.6-10.24 35.84-20.48 5.12-10.24 10.24-15.36 15.36-30.72h-51.2v51.2z" fill="#36ab60" p-id="8262" data-spm-anchor-id="a313x.search_index.0.i2.7f0e3a81zoA7vg" class="selected"></path><path d="M983.04 768H870.4v-112.64c0-20.48-20.48-40.96-40.96-40.96h-20.48c-20.48 0-40.96 20.48-40.96 40.96V768h-112.64c-20.48 0-40.96 20.48-40.96 40.96v20.48c0 20.48 20.48 40.96 40.96 40.96H768v112.64c0 20.48 20.48 40.96 40.96 40.96h20.48c20.48 0 40.96-20.48 40.96-40.96V870.4h112.64c20.48 0 40.96-20.48 40.96-40.96v-20.48c0-20.48-20.48-40.96-40.96-40.96z" fill="#36ab60" p-id="8263" data-spm-anchor-id="a313x.search_index.0.i3.7f0e3a81zoA7vg" class="selected"></path></svg>