<?xml version="1.0" encoding="UTF-8"?>
<svg id="_图层_1" data-name="图层 1" xmlns="http://www.w3.org/2000/svg" viewBox="0 0 800 800">
  <rect x="200.01" y="323.62" width="40" height="40" style="fill: #e9cb94; stroke: #e9cb94; stroke-miterlimit: 10; stroke-width: .25px;"/>
  <rect x="160.01" y="283.62" width="40" height="40" style="fill: #8e6a38; stroke: #8e6a38; stroke-miterlimit: 10; stroke-width: .25px;"/>
  <rect x="200.01" y="243.62" width="40" height="40" style="fill: #8e6a38; stroke: #8e6a38; stroke-miterlimit: 10; stroke-width: .25px;"/>
  <rect x="240.01" y="243.62" width="40" height="40" style="fill: #8e6a38; stroke: #8e6a38; stroke-miterlimit: 10; stroke-width: .25px;"/>
  <rect x="560.01" y="283.62" width="40" height="40" style="fill: #e5e2d0; stroke: #e5e2d0; stroke-miterlimit: 10; stroke-width: .25px;"/>
  <rect x="520.01" y="323.62" width="40" height="40" style="fill: #e5e2d0; stroke: #e5e2d0; stroke-miterlimit: 10; stroke-width: .25px;"/>
  <rect x="480.01" y="363.62" width="40" height="40" style="fill: #e5e2d0; stroke: #e5e2d0; stroke-miterlimit: 10; stroke-width: .25px;"/>
  <rect x="440.01" y="403.62" width="40" height="40" style="fill: #e5e2d0; stroke: #e5e2d0; stroke-miterlimit: 10; stroke-width: .25px;"/>
  <rect x="440.01" y="363.62" width="40" height="40" style="fill: #3e2a0b; stroke: #3e2a0b; stroke-miterlimit: 10; stroke-width: .25px;"/>
  <rect x="400.01" y="363.62" width="40" height="40" style="fill: #3e2a0b; stroke: #3e2a0b; stroke-miterlimit: 10; stroke-width: .25px;"/>
  <rect x="360.01" y="363.62" width="40" height="40" style="fill: #3e2a0b; stroke: #3e2a0b; stroke-miterlimit: 10; stroke-width: .25px;"/>
  <rect x="280.01" y="363.62" width="40" height="40" style="fill: #8e6a38; stroke: #8e6a38; stroke-miterlimit: 10; stroke-width: .25px;"/>
  <rect x="320.01" y="363.62" width="40" height="40" style="fill: #8e6a38; stroke: #8e6a38; stroke-miterlimit: 10; stroke-width: .25px;"/>
  <rect x="360.01" y="443.62" width="40" height="40" style="fill: #8e6a38; stroke: #8e6a38; stroke-miterlimit: 10; stroke-width: .25px;"/>
  <rect x="360.01" y="403.62" width="40" height="40" style="fill: #8e6a38; stroke: #8e6a38; stroke-miterlimit: 10; stroke-width: .25px;"/>
  <rect x="240.01" y="363.62" width="40" height="40" style="fill: #cc9e53; stroke: #cc9e53; stroke-miterlimit: 10; stroke-width: .25px;"/>
  <rect x="320.01" y="443.62" width="40" height="40" style="fill: #cc9e53; stroke: #cc9e53; stroke-miterlimit: 10; stroke-width: .25px;"/>
  <rect x="320.01" y="403.62" width="40" height="40" style="fill: #e9cb94; stroke: #e9cb94; stroke-miterlimit: 10; stroke-width: .25px;"/>
  <rect x="280.01" y="443.62" width="40" height="40" style="fill: #f4e4cf; stroke: #f4e4cf; stroke-miterlimit: 10; stroke-width: .25px;"/>
  <rect x="280.01" y="403.62" width="40" height="40" style="fill: #f4e4cf; stroke: #f4e4cf; stroke-miterlimit: 10; stroke-width: .25px;"/>
  <rect x="400.01" y="443.62" width="40" height="40" style="fill: #d0690d; stroke: #d0690d; stroke-miterlimit: 10; stroke-width: .25px;"/>
  <rect x="400.01" y="403.62" width="40" height="40" style="fill: #be331f; stroke: #be331f; stroke-miterlimit: 10; stroke-width: .25px;"/>
  <rect x="560.01" y="243.62" width="40" height="40" style="fill: #c9c4a3; stroke: #c9c4a3; stroke-miterlimit: 10; stroke-width: .25px;"/>
  <rect x="600.01" y="243.62" width="40" height="40" style="fill: #c9c4a3; stroke: #c9c4a3; stroke-miterlimit: 10; stroke-width: .25px;"/>
  <rect x="400.01" y="523.62" width="40" height="40" style="fill: #921e32; stroke: #921e32; stroke-miterlimit: 10; stroke-width: .25px;"/>
  <rect x="360.01" y="523.62" width="40" height="40" style="fill: #392706; stroke: #392706; stroke-miterlimit: 10; stroke-width: .25px;"/>
  <rect x="320.01" y="563.62" width="40" height="40" style="fill: #553a0a; stroke: #553a0a; stroke-miterlimit: 10; stroke-width: .25px;"/>
  <rect x="360.01" y="563.62" width="40" height="40" style="fill: #704e0f; stroke: #704e0f; stroke-miterlimit: 10; stroke-width: .25px;"/>
  <rect x="400.01" y="563.62" width="40" height="40" style="fill: #704e0f; stroke: #704e0f; stroke-miterlimit: 10; stroke-width: .25px;"/>
  <rect x="440.01" y="563.62" width="40" height="40" style="fill: #8d202f; stroke: #8d202f; stroke-miterlimit: 10; stroke-width: .25px;"/>
  <rect x="320.01" y="603.62" width="40" height="40" style="fill: #1f1502; stroke: #1f1502; stroke-miterlimit: 10; stroke-width: .25px;"/>
  <rect x="360.01" y="603.62" width="40" height="40" style="fill: #1f1502; stroke: #1f1502; stroke-miterlimit: 10; stroke-width: .25px;"/>
  <rect x="400.01" y="603.62" width="40" height="40" style="fill: #1f1502; stroke: #1f1502; stroke-miterlimit: 10; stroke-width: .25px;"/>
  <rect x="440.01" y="603.62" width="40" height="40" style="fill: #1f1502; stroke: #1f1502; stroke-miterlimit: 10; stroke-width: .25px;"/>
  <rect x="320.01" y="643.62" width="40" height="40" style="fill: #c96c03; stroke: #c96c03; stroke-miterlimit: 10; stroke-width: .25px;"/>
  <rect x="360.01" y="643.62" width="40" height="40" style="fill: #c96c03; stroke: #c96c03; stroke-miterlimit: 10; stroke-width: .25px;"/>
  <rect x="400.01" y="643.62" width="40" height="40" style="fill: #efcd56; stroke: #efcd56; stroke-miterlimit: 10; stroke-width: .25px;"/>
  <rect x="440.01" y="643.62" width="40" height="40" style="fill: #efcd56; stroke: #efcd56; stroke-miterlimit: 10; stroke-width: .25px;"/>
  <rect x="280.01" y="643.62" width="40" height="40" style="fill: #4c3d26; stroke: #4c3d26; stroke-miterlimit: 10; stroke-width: .25px;"/>
  <rect x="240.01" y="643.62" width="40" height="40" style="fill: #4c3d26; stroke: #4c3d26; stroke-miterlimit: 10; stroke-width: .25px;"/>
  <rect x="240.01" y="683.62" width="40" height="40" style="fill: #4c3d26; stroke: #4c3d26; stroke-miterlimit: 10; stroke-width: .25px;"/>
  <rect x="200.01" y="683.62" width="40" height="40" style="fill: #4c3d26; stroke: #4c3d26; stroke-miterlimit: 10; stroke-width: .25px;"/>
  <rect x="200.01" y="723.62" width="40" height="40" style="fill: #4c3d26; stroke: #4c3d26; stroke-miterlimit: 10; stroke-width: .25px;"/>
  <rect x="320.01" y="723.62" width="40" height="40" style="fill: #4c3d26; stroke: #4c3d26; stroke-miterlimit: 10; stroke-width: .25px;"/>
  <rect x="280.01" y="683.62" width="40" height="40" style="fill: #c29d62; stroke: #c29d62; stroke-miterlimit: 10; stroke-width: .25px;"/>
  <rect x="240.01" y="723.62" width="40" height="40" style="fill: #5f4a2b; stroke: #5f4a2b; stroke-miterlimit: 10; stroke-width: .25px;"/>
  <rect x="280.01" y="723.62" width="40" height="40" style="fill: #5f4a2b; stroke: #5f4a2b; stroke-miterlimit: 10; stroke-width: .25px;"/>
  <rect x="440.01" y="723.62" width="40" height="40" style="fill: #4c3d26; stroke: #4c3d26; stroke-miterlimit: 10; stroke-width: .25px;"/>
  <rect x="560.01" y="723.62" width="40" height="40" style="fill: #4c3d26; stroke: #4c3d26; stroke-miterlimit: 10; stroke-width: .25px;"/>
  <rect x="520.01" y="683.62" width="40" height="40" style="fill: #4c3d26; stroke: #4c3d26; stroke-miterlimit: 10; stroke-width: .25px;"/>
  <rect x="520.01" y="643.62" width="40" height="40" style="fill: #4c3d26; stroke: #4c3d26; stroke-miterlimit: 10; stroke-width: .25px;"/>
  <rect x="480.01" y="643.62" width="40" height="40" style="fill: #4c3d26; stroke: #4c3d26; stroke-miterlimit: 10; stroke-width: .25px;"/>
  <rect x="480.01" y="683.62" width="40" height="40" style="fill: #967441; stroke: #967441; stroke-miterlimit: 10; stroke-width: .25px;"/>
  <rect x="480.01" y="723.62" width="40" height="40" style="fill: #5f4a2b; stroke: #5f4a2b; stroke-miterlimit: 10; stroke-width: .25px;"/>
  <rect x="520.01" y="723.62" width="40" height="40" style="fill: #5f4a2b; stroke: #5f4a2b; stroke-miterlimit: 10; stroke-width: .25px;"/>
  <rect x="360.01" y="683.62" width="40" height="40" style="fill: #f9ebab; stroke: #f9ebab; stroke-miterlimit: 10; stroke-width: .25px;"/>
  <rect x="400.01" y="723.62" width="40" height="40" style="fill: #917142; stroke: #917142; stroke-miterlimit: 10; stroke-width: .25px;"/>
  <rect x="360.01" y="723.62" width="40" height="40" style="fill: #745a36; stroke: #745a36; stroke-miterlimit: 10; stroke-width: .25px;"/>
  <rect x="240.01" y="323.62" width="40" height="40" style="fill: #8e6a38; stroke: #8e6a38; stroke-miterlimit: 10; stroke-width: .25px;"/>
  <rect x="320.01" y="523.62" width="40" height="40" style="fill: #392706; stroke: #392706; stroke-miterlimit: 10; stroke-width: .25px;"/>
  <rect x="320.01" y="683.62" width="40" height="40" style="fill: #b8945f; stroke: #b8945f; stroke-miterlimit: 10; stroke-width: .25px;"/>
  <rect x="400.01" y="683.62" width="40" height="40" style="fill: #fff; stroke: #fff; stroke-miterlimit: 10; stroke-width: .25px;"/>
  <rect x="440.01" y="683.62" width="40" height="40" style="fill: #c29d62; stroke: #c29d62; stroke-miterlimit: 10; stroke-width: .25px;"/>
  <rect x="560.01" y="683.62" width="40" height="40" style="fill: #4c3d26; stroke: #4c3d26; stroke-miterlimit: 10; stroke-width: .25px;"/>
  <rect x="600.01" y="283.62" width="40" height="40" style="fill: #e5e2d0; stroke: #e5e2d0; stroke-miterlimit: 10; stroke-width: .25px;"/>
  <rect x="400.01" y="483.62" width="40" height="40" style="fill: #d0690d; stroke: #d0690d; stroke-miterlimit: 10; stroke-width: .25px;"/>
  <rect x="440.01" y="483.62" width="40" height="40" style="fill: #d0690d; stroke: #d0690d; stroke-miterlimit: 10; stroke-width: .25px;"/>
  <rect x="440.01" y="443.62" width="40" height="40" style="fill: #fcfcfa; stroke: #fcfcfa; stroke-miterlimit: 10; stroke-width: .25px;"/>
  <rect x="480.01" y="403.62" width="40" height="40" style="fill: #fcfcfa; stroke: #fcfcfa; stroke-miterlimit: 10; stroke-width: .25px;"/>
  <rect x="520.01" y="363.62" width="40" height="40" style="fill: #fcfcfa; stroke: #fcfcfa; stroke-miterlimit: 10; stroke-width: .25px;"/>
  <rect x="560.01" y="323.62" width="40" height="40" style="fill: #fcfcfa; stroke: #fcfcfa; stroke-miterlimit: 10; stroke-width: .25px;"/>
  <rect x="640.01" y="283.62" width="40" height="40" style="fill: #c9c4a3; stroke: #c9c4a3; stroke-miterlimit: 10; stroke-width: .25px;"/>
  <rect x="480.01" y="443.62" width="40" height="40" style="fill: #7a7d6a; stroke: #7a7d6a; stroke-miterlimit: 10; stroke-width: .25px;"/>
  <rect x="520.01" y="403.62" width="40" height="40" style="fill: #7a7d6a; stroke: #7a7d6a; stroke-miterlimit: 10; stroke-width: .25px;"/>
  <rect x="560.01" y="363.62" width="40" height="40" style="fill: #7a7d6a; stroke: #7a7d6a; stroke-miterlimit: 10; stroke-width: .25px;"/>
  <rect x="600.01" y="323.62" width="40" height="40" style="fill: #7a7d6a; stroke: #7a7d6a; stroke-miterlimit: 10; stroke-width: .25px;"/>
  <rect x="640.01" y="323.62" width="40" height="40" style="fill: #7a7d6a; stroke: #7a7d6a; stroke-miterlimit: 10; stroke-width: .25px;"/>
  <rect x="560.01" y="403.62" width="40" height="40" style="fill: #3e2a0b; stroke: #3e2a0b; stroke-miterlimit: 10; stroke-width: .25px;"/>
  <rect x="440.01" y="523.62" width="40" height="40" style="fill: #921e32; stroke: #921e32; stroke-miterlimit: 10; stroke-width: .25px;"/>
  <rect x="480.01" y="483.62" width="40" height="40" style="fill: #921e32; stroke: #921e32; stroke-miterlimit: 10; stroke-width: .25px;"/>
  <rect x="560.01" y="443.62" width="40" height="40" style="fill: #921e32; stroke: #921e32; stroke-miterlimit: 10; stroke-width: .25px;"/>
  <rect x="520.01" y="443.62" width="40" height="40" style="fill: #d0690d; stroke: #d0690d; stroke-miterlimit: 10; stroke-width: .25px;"/>
  <rect x="480.01" y="523.62" width="40" height="40" style="fill: #392706; stroke: #392706; stroke-miterlimit: 10; stroke-width: .25px;"/>
  <rect x="520.01" y="483.62" width="40" height="40" style="fill: #392706; stroke: #392706; stroke-miterlimit: 10; stroke-width: .25px;"/>
  <rect x="560.01" y="483.62" width="40" height="40" style="fill: #3e2a0b; stroke: #3e2a0b; stroke-miterlimit: 10; stroke-width: .25px;"/>
  <rect x="600.01" y="443.62" width="40" height="40" style="fill: #1f1502; stroke: #1f1502; stroke-miterlimit: 10; stroke-width: .25px;"/>
  <rect x="600.01" y="483.62" width="40" height="40" style="fill: #1f1502; stroke: #1f1502; stroke-miterlimit: 10; stroke-width: .25px;"/>
  <rect x="520.01" y="563.62" width="40" height="40" style="fill: #1f1502; stroke: #1f1502; stroke-miterlimit: 10; stroke-width: .25px;"/>
  <rect x="560.01" y="523.62" width="40" height="40" style="fill: #201602; stroke: #201602; stroke-miterlimit: 10; stroke-width: .25px;"/>
  <rect x="480.01" y="563.62" width="40" height="40" style="fill: #201602; stroke: #201602; stroke-miterlimit: 10; stroke-width: .25px;"/>
  <rect x="520.01" y="523.62" width="40" height="40" style="fill: #583c09; stroke: #583c09; stroke-miterlimit: 10; stroke-width: .25px;"/>
  <rect x="200.01" y="283.62" width="40" height="40" style="fill: #cc9e53; stroke: #cc9e53; stroke-miterlimit: 10; stroke-width: .25px;"/>
  <rect x="240.01" y="283.62" width="40" height="40" style="fill: #8e6a38; stroke: #8e6a38; stroke-miterlimit: 10; stroke-width: .25px;"/>
  <rect x="120.01" y="323.62" width="40" height="40" style="fill: #8e6a38; stroke: #8e6a38; stroke-miterlimit: 10; stroke-width: .25px;"/>
  <rect x="160.01" y="323.62" width="40" height="40" style="fill: #cc9e53; stroke: #cc9e53; stroke-miterlimit: 10; stroke-width: .25px;"/>
  <rect x="160.01" y="363.62" width="40" height="40" style="fill: #8e6a38; stroke: #8e6a38; stroke-miterlimit: 10; stroke-width: .25px;"/>
  <rect x="200.01" y="403.62" width="40" height="40" style="fill: #8e6a38; stroke: #8e6a38; stroke-miterlimit: 10; stroke-width: .25px;"/>
  <rect x="200.01" y="443.62" width="40" height="40" style="fill: #8e6a38; stroke: #8e6a38; stroke-miterlimit: 10; stroke-width: .25px;"/>
  <rect x="200.01" y="363.62" width="40" height="40" style="fill: #e9cb94; stroke: #e9cb94; stroke-miterlimit: 10; stroke-width: .25px;"/>
  <rect x="240.01" y="443.62" width="40" height="40" style="fill: #cc9e53; stroke: #cc9e53; stroke-miterlimit: 10; stroke-width: .25px;"/>
  <rect x="240.01" y="403.62" width="40" height="40" style="fill: #e9cb94; stroke: #e9cb94; stroke-miterlimit: 10; stroke-width: .25px;"/>
  <rect x="360.01" y="483.62" width="40" height="40" style="fill: #d0690d; stroke: #d0690d; stroke-miterlimit: 10; stroke-width: .25px;"/>
  <rect x="160.01" y="443.62" width="40" height="40" style="fill: #3e2a0b; stroke: #3e2a0b; stroke-miterlimit: 10; stroke-width: .25px;"/>
  <rect x="160.01" y="483.62" width="40" height="40" style="fill: #3e2a0b; stroke: #3e2a0b; stroke-miterlimit: 10; stroke-width: .25px;"/>
  <rect x="120.01" y="363.62" width="40" height="40" style="fill: #664820; stroke: #664820; stroke-miterlimit: 10; stroke-width: .25px;"/>
  <rect x="160.01" y="403.62" width="40" height="40" style="fill: #664820; stroke: #664820; stroke-miterlimit: 10; stroke-width: .25px;"/>
  <rect x="120.01" y="403.62" width="40" height="40" style="fill: #664820; stroke: #664820; stroke-miterlimit: 10; stroke-width: .25px;"/>
  <rect x="200.01" y="483.62" width="40" height="40" style="fill: #432e0b; stroke: #432e0b; stroke-miterlimit: 10; stroke-width: .25px;"/>
  <rect x="240.01" y="483.62" width="40" height="40" style="fill: #3e2a0b; stroke: #3e2a0b; stroke-miterlimit: 10; stroke-width: .25px;"/>
  <rect x="280.01" y="483.62" width="40" height="40" style="fill: #aa3800; stroke: #aa3800; stroke-miterlimit: 10; stroke-width: .25px;"/>
  <rect x="320.01" y="483.62" width="40" height="40" style="fill: #aa3800; stroke: #aa3800; stroke-miterlimit: 10; stroke-width: .25px;"/>
  <rect x="280.01" y="523.62" width="40" height="40" style="fill: #be331f; stroke: #be331f; stroke-miterlimit: 10; stroke-width: .25px;"/>
  <rect x="200.01" y="523.62" width="40" height="40" style="fill: #2f2109; stroke: #2f2109; stroke-miterlimit: 10; stroke-width: .25px;"/>
  <rect x="240.01" y="523.62" width="40" height="40" style="fill: #573c0a; stroke: #573c0a; stroke-miterlimit: 10; stroke-width: .25px;"/>
  <rect x="240.01" y="563.62" width="40" height="40" style="fill: #1f1502; stroke: #1f1502; stroke-miterlimit: 10; stroke-width: .25px;"/>
  <rect x="280.01" y="563.62" width="40" height="40" style="fill: #231504; stroke: #231504; stroke-miterlimit: 10; stroke-width: .25px;"/>
  <polygon points="465.82 81.18 440.01 125.87 414.21 81.18 465.82 81.18" style="fill: #00e060; stroke: #00e060; stroke-miterlimit: 10; stroke-width: .25px;"/>
  <polygon points="440.01 125.88 414.2 170.58 388.4 125.88 440.01 125.88" style="fill: #00bc59; stroke: #00bc59; stroke-miterlimit: 10; stroke-width: .25px;"/>
  <polygon points="440.01 36.48 414.21 81.18 414.2 81.18 388.4 36.48 440.01 36.48" style="fill: #00bc59; stroke: #00bc59; stroke-miterlimit: 10; stroke-width: .25px;"/>
  <polygon points="465.82 81.18 414.21 81.18 440.01 36.48 465.82 81.18" style="fill: #00bc59; stroke: #00bc59; stroke-miterlimit: 10; stroke-width: .25px;"/>
  <polygon points="414.2 170.58 362.59 170.58 388.39 125.88 388.4 125.88 414.2 170.58" style="fill: #00bc59; stroke: #00bc59; stroke-miterlimit: 10; stroke-width: .25px;"/>
  <polygon points="440.01 215.28 388.4 215.28 414.2 170.58 440.01 215.28" style="fill: #00e060; stroke: #00e060; stroke-miterlimit: 10; stroke-width: .25px;"/>
  <polygon points="414.2 170.58 388.4 215.28 388.39 215.28 362.59 170.58 414.2 170.58" style="fill: #00e060; stroke: #00e060; stroke-miterlimit: 10; stroke-width: .25px;"/>
  <polygon points="440.01 125.87 440.01 125.88 388.4 125.88 414.2 81.18 414.21 81.18 440.01 125.87" style="fill: #00e060; stroke: #00e060; stroke-miterlimit: 10; stroke-width: .25px;"/>
  <polygon points="581.2 81.18 581.2 81.19 581.19 81.18 581.2 81.18" style="fill: #00e060; stroke: #00e060; stroke-miterlimit: 10; stroke-width: .25px;"/>
  <polygon points="555.39 36.49 529.58 81.18 529.57 81.18 503.77 36.49 555.39 36.49" style="fill: #0088d3; stroke: #0088d3; stroke-miterlimit: 10; stroke-width: .25px;"/>
  <polygon points="581.19 81.17 581.19 81.18 529.58 81.18 555.39 36.49 581.19 81.17" style="fill: #0088d3; stroke: #0088d3; stroke-miterlimit: 10; stroke-width: .25px;"/>
  <polygon points="581.2 81.19 555.39 125.87 529.58 81.18 581.19 81.18 581.2 81.19" style="fill: #00bdff; stroke: #00bdff; stroke-miterlimit: 10; stroke-width: .25px;"/>
  <polygon points="555.39 125.88 529.57 170.58 503.77 125.88 555.39 125.88" style="fill: #0088d3; stroke: #0088d3; stroke-miterlimit: 10; stroke-width: .25px;"/>
  <polygon points="555.38 215.27 555.38 215.28 503.77 215.28 529.57 170.58 555.38 215.27" style="fill: #00bdff; stroke: #00bdff; stroke-miterlimit: 10; stroke-width: .25px;"/>
  <polygon points="529.57 170.58 503.77 215.28 503.76 215.28 477.96 170.58 529.57 170.58" style="fill: #00bdff; stroke: #00bdff; stroke-miterlimit: 10; stroke-width: .25px;"/>
  <polygon points="555.39 125.87 555.39 125.88 503.77 125.88 529.57 81.18 529.58 81.18 555.39 125.87" style="fill: #00bdff; stroke: #00bdff; stroke-miterlimit: 10; stroke-width: .25px;"/>
  <polygon points="529.57 170.58 477.96 170.58 503.76 125.88 503.77 125.88 529.57 170.58" style="fill: #0088d3; stroke: #0088d3; stroke-miterlimit: 10; stroke-width: .25px;"/>
  <polygon points="350.75 81.18 350.75 81.19 350.74 81.18 350.75 81.18" style="fill: #00e060; stroke: #00e060; stroke-miterlimit: 10; stroke-width: .25px;"/>
  <polygon points="324.94 36.49 299.13 81.18 299.12 81.18 273.32 36.49 324.94 36.49" style="fill: #c43139; stroke: #c43139; stroke-miterlimit: 10; stroke-width: .25px;"/>
  <polygon points="350.74 81.17 350.74 81.18 299.13 81.18 324.94 36.49 350.74 81.17" style="fill: #c43139; stroke: #c43139; stroke-miterlimit: 10; stroke-width: .25px;"/>
  <polygon points="350.75 81.19 324.94 125.87 299.13 81.18 350.74 81.18 350.75 81.19" style="fill: #ed1438; stroke: #ed1438; stroke-miterlimit: 10; stroke-width: .25px;"/>
  <polygon points="324.94 125.88 299.12 170.58 273.32 125.88 324.94 125.88" style="fill: #c43139; stroke: #c43139; stroke-miterlimit: 10; stroke-width: .25px;"/>
  <polygon points="324.93 215.27 324.93 215.28 273.32 215.28 299.12 170.58 324.93 215.27" style="fill: #ed1438; stroke: #ed1438; stroke-miterlimit: 10; stroke-width: .25px;"/>
  <polygon points="324.94 215.28 324.93 215.28 324.93 215.27 324.94 215.28" style="fill: #00e060; stroke: #00e060; stroke-miterlimit: 10; stroke-width: .25px;"/>
  <polygon points="299.12 170.58 273.32 215.28 273.31 215.28 247.51 170.58 299.12 170.58" style="fill: #ed1438; stroke: #ed1438; stroke-miterlimit: 10; stroke-width: .25px;"/>
  <polygon points="324.94 125.87 324.94 125.88 273.32 125.88 299.12 81.18 299.13 81.18 324.94 125.87" style="fill: #ed1438; stroke: #ed1438; stroke-miterlimit: 10; stroke-width: .25px;"/>
  <polygon points="299.12 170.58 247.51 170.58 273.31 125.88 273.32 125.88 299.12 170.58" style="fill: #c43139; stroke: #c43139; stroke-miterlimit: 10; stroke-width: .25px;"/>
</svg>